<svg width="900" height="260" viewBox="0 0 900 260" fill="none" xmlns="http://www.w3.org/2000/svg">
  <rect width="900" height="260" rx="36" fill="#07110B"/>
  <g transform="translate(72 46)">
    <circle cx="84" cy="84" r="78" fill="#B7FF3C"/>
    <path d="M30 33C63 55 72 91 53 139" stroke="#07110B" stroke-width="11" stroke-linecap="round"/>
    <path d="M138 29C104 54 95 91 115 141" stroke="#07110B" stroke-width="11" stroke-linecap="round"/>
    <path d="M35 128C63 105 105 95 136 112" stroke="#07110B" stroke-width="8" stroke-linecap="round" opacity="0.9"/>
    <path d="M34 158L74 120L108 137L151 84" stroke="#07110B" stroke-width="10" stroke-linecap="round" stroke-linejoin="round"/>
    <circle cx="74" cy="120" r="7" fill="#07110B"/>
    <circle cx="108" cy="137" r="7" fill="#07110B"/>
    <circle cx="151" cy="84" r="7" fill="#07110B"/>
  </g>
  <text x="270" y="120" fill="#F7FFF1" font-family="Inter, ui-sans-serif, system-ui, -apple-system, BlinkMacSystemFont, Segoe UI, sans-serif" font-size="62" font-weight="800" letter-spacing="-1.5">Tennis</text>
  <text x="270" y="178" fill="#B7FF3C" font-family="Inter, ui-sans-serif, system-ui, -apple-system, BlinkMacSystemFont, Segoe UI, sans-serif" font-size="58" font-weight="700" letter-spacing="-1.2">Tracker</text>
  <path d="M650 174H812" stroke="#B7FF3C" stroke-width="8" stroke-linecap="round" opacity="0.25"/>
  <path d="M650 174L700 128L741 148L812 84" stroke="#B7FF3C" stroke-width="8" stroke-linecap="round" stroke-linejoin="round"/>
  <circle cx="650" cy="174" r="8" fill="#B7FF3C"/>
  <circle cx="700" cy="128" r="8" fill="#B7FF3C"/>
  <circle cx="741" cy="148" r="8" fill="#B7FF3C"/>
  <circle cx="812" cy="84" r="8" fill="#B7FF3C"/>
</svg>
